<svg xmlns="http://www.w3.org/2000/svg" data-name="Layer 1" viewBox="0 0 100 125" x="0px" y="0px"><title>Notifcation Bell</title><path d="M50,72.29959h.00006a4.907,4.907,0,0,0,4.907-4.907H45.093A4.907,4.907,0,0,0,50,72.29959Z"/><path d="M68.51251,63.04123l-4.36737-4.86591V47.44589s1.01074-12.789-10.53583-14.97369V31.30814a3.60941,3.60941,0,0,0-7.21881,0V32.473c-11.52789,2.18738-10.53564,14.9729-10.53564,14.9729V58.17532l-4.36725,4.86584a1.3905,1.3905,0,0,0,.98309,2.37372H67.52905a1.39056,1.39056,0,0,0,.98346-2.37366Z"/><path d="M33.5,40A1.50007,1.50007,0,0,0,32,38.5H16a1.5,1.5,0,0,0,0,3H32A1.50007,1.50007,0,0,0,33.5,40Z"/><path d="M33.5,46.5A1.50007,1.50007,0,0,0,32,45H22a1.5,1.5,0,0,0,0,3H32A1.50007,1.50007,0,0,0,33.5,46.5Z"/><path d="M33.5,53A1.50039,1.50039,0,0,0,32,51.5H28a1.5,1.5,0,0,0,0,3h4A1.50039,1.50039,0,0,0,33.5,53Z"/><text x="0" y="115" fill="#000000" font-size="5px" font-weight="bold" font-family="'Helvetica Neue', Helvetica, Arial-Unicode, Arial, Sans-serif">Created by Oliver Gomez</text><text x="0" y="120" fill="#000000" font-size="5px" font-weight="bold" font-family="'Helvetica Neue', Helvetica, Arial-Unicode, Arial, Sans-serif">from the Noun Project</text></svg>